<svg width="140" height="140" viewBox="0 0 140 140" fill="none" xmlns="http://www.w3.org/2000/svg">
<g clip-path="url(#clip0_1180_254)">
<rect width="140" height="140" rx="9" fill="url(#paint0_linear_1180_254)"/>
<path d="M69.3461 97.5127C60.702 97.5127 53.8947 94.8835 48.9243 89.6249C43.9539 84.2944 41.4687 76.6227 41.4687 66.6099V49.7538C41.4687 40.0291 43.9539 32.4655 48.9243 27.0629C53.8947 21.5882 60.702 18.8509 69.3461 18.8509C77.9903 18.8509 84.7976 21.5882 89.7679 27.0629C94.7383 32.4655 97.2235 40.0291 97.2235 49.7538V66.6099C97.2235 76.6227 94.7383 84.2944 89.7679 89.6249C84.7976 94.8835 77.9903 97.5127 69.3461 97.5127ZM69.3461 84.5465C74.5326 84.5465 78.0983 82.9617 80.0433 79.7922C81.9882 76.6227 82.9607 72.5167 82.9607 67.4743V48.8893C82.9607 45.7198 82.4924 42.8384 81.556 40.2452C80.6195 37.6519 79.1428 35.599 77.1259 34.0862C75.1809 32.5735 72.5877 31.8171 69.3461 31.8171C66.1046 31.8171 63.4753 32.5735 61.4583 34.0862C59.4414 35.599 57.9647 37.6519 57.0282 40.2452C56.1638 42.8384 55.7316 45.7198 55.7316 48.8893V67.4743C55.7316 72.5167 56.704 76.6227 58.649 79.7922C60.5939 82.9617 64.1596 84.5465 69.3461 84.5465Z" fill="white"/>
<rect x="39" y="111" width="62" height="12" fill="white"/>
</g>
<defs>
<linearGradient id="paint0_linear_1180_254" x1="70" y1="0" x2="70" y2="140" gradientUnits="userSpaceOnUse">
<stop stop-color="#D97913"/>
<stop offset="1" stop-color="#FF8300"/>
</linearGradient>
<clipPath id="clip0_1180_254">
<rect width="140" height="140" rx="9" fill="white"/>
</clipPath>
</defs>
</svg>
